<svg width="139" height="21" viewBox="0 0 139 21" fill="none" xmlns="http://www.w3.org/2000/svg">
<path d="M4.20809e-05 17.04V7.62939e-06H4.17604V7.08001L9.86404 7.62939e-06H14.664L8.54404 7.56001L15.024 17.04H10.344L5.80804 10.32L4.17604 12.264V17.04H4.20809e-05ZM21.4665 17.328C20.1225 17.328 18.9465 17.048 17.9385 16.488C16.9305 15.928 16.1465 15.144 15.5865 14.136C15.0265 13.128 14.7465 11.944 14.7465 10.584C14.7465 9.22401 15.0265 8.04801 15.5865 7.05601C16.1465 6.04801 16.9225 5.26401 17.9145 4.70401C18.9225 4.12801 20.0985 3.84001 21.4425 3.84001C22.7865 3.84001 23.9465 4.12801 24.9225 4.70401C25.9145 5.26401 26.6745 6.07201 27.2025 7.12801C27.7305 8.18401 27.9945 9.44001 27.9945 10.896V11.664H19.0185C19.0665 12.56 19.3145 13.232 19.7625 13.68C20.2265 14.112 20.8185 14.328 21.5385 14.328C22.0825 14.328 22.5385 14.224 22.9065 14.016C23.2745 13.792 23.5385 13.432 23.6985 12.936L27.8265 13.176C27.4745 14.52 26.7305 15.552 25.5945 16.272C24.4585 16.976 23.0825 17.328 21.4665 17.328ZM19.0185 9.31201H23.8185C23.7865 8.46401 23.5545 7.83201 23.1225 7.41601C22.6905 6.98401 22.1305 6.76801 21.4425 6.76801C20.7865 6.76801 20.2345 6.99201 19.7865 7.44001C19.3545 7.88801 19.0985 8.51201 19.0185 9.31201ZM36.115 17.328C34.771 17.328 33.595 17.048 32.587 16.488C31.579 15.928 30.795 15.144 30.235 14.136C29.675 13.128 29.395 11.944 29.395 10.584C29.395 9.22401 29.675 8.04801 30.235 7.05601C30.795 6.04801 31.571 5.26401 32.563 4.70401C33.571 4.12801 34.747 3.84001 36.091 3.84001C37.435 3.84001 38.595 4.12801 39.571 4.70401C40.563 5.26401 41.323 6.07201 41.851 7.12801C42.379 8.18401 42.643 9.44001 42.643 10.896V11.664H33.667C33.715 12.56 33.963 13.232 34.411 13.68C34.875 14.112 35.467 14.328 36.187 14.328C36.731 14.328 37.187 14.224 37.555 14.016C37.923 13.792 38.187 13.432 38.347 12.936L42.475 13.176C42.123 14.52 41.379 15.552 40.243 16.272C39.107 16.976 37.731 17.328 36.115 17.328ZM33.667 9.31201H38.467C38.435 8.46401 38.203 7.83201 37.771 7.41601C37.339 6.98401 36.779 6.76801 36.091 6.76801C35.435 6.76801 34.883 6.99201 34.435 7.44001C34.003 7.88801 33.747 8.51201 33.667 9.31201ZM44.6914 17.04V4.12801H48.3874L48.5554 8.08801L48.0514 7.99201C48.1634 6.96801 48.4114 6.15201 48.7954 5.54401C49.1954 4.93601 49.6914 4.50401 50.2834 4.24801C50.8754 3.97601 51.5314 3.84001 52.2514 3.84001C53.1634 3.84001 53.9474 4.04001 54.6034 4.44001C55.2754 4.82401 55.7874 5.38401 56.1394 6.12001C56.4914 6.84001 56.6674 7.71201 56.6674 8.73601V17.04H52.5394V10.152C52.5394 9.49601 52.4914 8.93601 52.3954 8.47201C52.2994 8.00801 52.1234 7.65601 51.8674 7.41601C51.6274 7.17601 51.2754 7.05601 50.8114 7.05601C50.1394 7.05601 49.6354 7.32801 49.2994 7.87201C48.9794 8.40001 48.8194 9.16001 48.8194 10.152V17.04H44.6914Z" fill="#1F2937"/>
<path d="M60.0537 17.04V7.62939e-06H63.1737V7.77601L69.8457 7.62939e-06H73.5417L67.1577 7.48801L73.9497 17.04H70.3737L65.0937 9.62401L63.1737 11.808V17.04H60.0537ZM80.2405 17.328C78.9605 17.328 77.8485 17.056 76.9045 16.512C75.9605 15.952 75.2325 15.168 74.7205 14.16C74.2085 13.152 73.9525 11.976 73.9525 10.632C73.9525 9.28801 74.2085 8.12001 74.7205 7.12801C75.2325 6.12001 75.9525 5.33601 76.8805 4.77601C77.8245 4.21601 78.9205 3.93601 80.1685 3.93601C81.3845 3.93601 82.4485 4.20801 83.3605 4.75201C84.2885 5.29601 85.0005 6.08001 85.4965 7.10401C85.9925 8.12801 86.2405 9.36001 86.2405 10.8V11.496H77.1445C77.2085 12.616 77.5125 13.464 78.0565 14.04C78.6165 14.6 79.3525 14.88 80.2645 14.88C80.9525 14.88 81.5205 14.728 81.9685 14.424C82.4325 14.104 82.7525 13.664 82.9285 13.104L86.0725 13.296C85.7205 14.544 85.0245 15.528 83.9845 16.248C82.9605 16.968 81.7125 17.328 80.2405 17.328ZM77.1445 9.43201H83.0725C83.0085 8.39201 82.7125 7.62401 82.1845 7.12801C81.6565 6.61601 80.9845 6.36001 80.1685 6.36001C79.3525 6.36001 78.6725 6.62401 78.1285 7.15201C77.6005 7.68001 77.2725 8.44001 77.1445 9.43201ZM94.1858 17.328C92.9058 17.328 91.7938 17.056 90.8498 16.512C89.9058 15.952 89.1778 15.168 88.6658 14.16C88.1538 13.152 87.8978 11.976 87.8978 10.632C87.8978 9.28801 88.1538 8.12001 88.6658 7.12801C89.1778 6.12001 89.8978 5.33601 90.8258 4.77601C91.7698 4.21601 92.8658 3.93601 94.1138 3.93601C95.3298 3.93601 96.3938 4.20801 97.3058 4.75201C98.2338 5.29601 98.9458 6.08001 99.4418 7.10401C99.9378 8.12801 100.186 9.36001 100.186 10.8V11.496H91.0898C91.1538 12.616 91.4578 13.464 92.0018 14.04C92.5618 14.6 93.2978 14.88 94.2098 14.88C94.8978 14.88 95.4658 14.728 95.9138 14.424C96.3778 14.104 96.6978 13.664 96.8738 13.104L100.018 13.296C99.6658 14.544 98.9698 15.528 97.9298 16.248C96.9058 16.968 95.6578 17.328 94.1858 17.328ZM91.0898 9.43201H97.0178C96.9538 8.39201 96.6578 7.62401 96.1298 7.12801C95.6018 6.61601 94.9298 6.36001 94.1138 6.36001C93.2978 6.36001 92.6178 6.62401 92.0738 7.15201C91.5458 7.68001 91.2178 8.44001 91.0898 9.43201ZM102.587 20.64V4.22401H105.539L105.611 6.96001L105.299 6.81601C105.619 5.87201 106.139 5.16001 106.859 4.68001C107.595 4.18401 108.451 3.93601 109.427 3.93601C110.643 3.93601 111.651 4.24001 112.451 4.84801C113.267 5.45601 113.875 6.26401 114.275 7.27201C114.675 8.28001 114.875 9.40001 114.875 10.632C114.875 11.864 114.667 12.984 114.251 13.992C113.851 15 113.243 15.808 112.427 16.416C111.627 17.024 110.619 17.328 109.403 17.328C108.763 17.328 108.163 17.216 107.603 16.992C107.059 16.768 106.587 16.448 106.187 16.032C105.803 15.616 105.531 15.128 105.371 14.568L105.659 14.328V20.64H102.587ZM108.683 14.832C109.611 14.832 110.339 14.464 110.867 13.728C111.411 12.976 111.683 11.944 111.683 10.632C111.683 9.32001 111.411 8.29601 110.867 7.56001C110.339 6.80801 109.611 6.43201 108.683 6.43201C108.059 6.43201 107.523 6.59201 107.075 6.91201C106.627 7.21601 106.275 7.68001 106.019 8.30401C105.779 8.92801 105.659 9.70401 105.659 10.632C105.659 11.56 105.779 12.336 106.019 12.96C106.259 13.584 106.603 14.056 107.051 14.376C107.515 14.68 108.059 14.832 108.683 14.832ZM122.803 17.328C121.523 17.328 120.411 17.056 119.467 16.512C118.523 15.952 117.795 15.168 117.283 14.16C116.771 13.152 116.515 11.976 116.515 10.632C116.515 9.28801 116.771 8.12001 117.283 7.12801C117.795 6.12001 118.515 5.33601 119.443 4.77601C120.387 4.21601 121.483 3.93601 122.731 3.93601C123.947 3.93601 125.011 4.20801 125.923 4.75201C126.851 5.29601 127.563 6.08001 128.059 7.10401C128.555 8.12801 128.803 9.36001 128.803 10.8V11.496H119.707C119.771 12.616 120.075 13.464 120.619 14.04C121.179 14.6 121.915 14.88 122.827 14.88C123.515 14.88 124.083 14.728 124.531 14.424C124.995 14.104 125.315 13.664 125.491 13.104L128.635 13.296C128.283 14.544 127.587 15.528 126.547 16.248C125.523 16.968 124.275 17.328 122.803 17.328ZM119.707 9.43201H125.635C125.571 8.39201 125.275 7.62401 124.747 7.12801C124.219 6.61601 123.547 6.36001 122.731 6.36001C121.915 6.36001 121.235 6.62401 120.691 7.15201C120.163 7.68001 119.835 8.44001 119.707 9.43201ZM131.204 17.04V4.22401H134.084L134.204 7.77601L133.94 7.72801C134.132 6.49601 134.492 5.60801 135.02 5.06401C135.564 4.50401 136.3 4.22401 137.228 4.22401H138.404V6.86401H137.204C136.548 6.86401 136.004 6.96001 135.572 7.15201C135.14 7.34401 134.812 7.64801 134.588 8.06401C134.38 8.46401 134.276 8.99201 134.276 9.64801V17.04H131.204Z" fill="#244D3F"/>
</svg>
