<svg width="412" height="61" viewBox="0 0 412 61" fill="none" xmlns="http://www.w3.org/2000/svg">
<path d="M0 50.3605V0H12.4311V20.9244L29.363 0H43.6516L25.4337 22.343L44.7233 50.3605H30.7919L17.2892 30.5L12.4311 36.2453V50.3605H0Z" fill="white"/>
<path d="M63.9012 51.2116C59.9004 51.2116 56.3997 50.3841 53.3991 48.7291C50.3985 47.074 48.0647 44.757 46.3977 41.7779C44.7307 38.7988 43.8972 35.2996 43.8972 31.2802C43.8972 27.2609 44.7307 23.7853 46.3977 20.8535C48.0647 17.8744 50.3747 15.5574 53.3277 13.9023C56.3283 12.2 59.829 11.3488 63.8298 11.3488C67.8306 11.3488 71.2836 12.2 74.189 13.9023C77.142 15.5574 79.4043 17.9453 80.9761 21.0663C82.5478 24.1872 83.3337 27.8992 83.3337 32.2023V34.4721H56.614C56.7569 37.1202 57.4952 39.1062 58.8288 40.4302C60.21 41.707 61.9722 42.3453 64.1155 42.3453C65.7349 42.3453 67.0923 42.038 68.1878 41.4233C69.2832 40.7612 70.0691 39.6973 70.5454 38.2314L82.8336 38.9407C81.7857 42.9128 79.571 45.9628 76.1894 48.0907C72.8078 50.1713 68.7117 51.2116 63.9012 51.2116ZM56.614 27.5209H70.9026C70.8073 25.0147 70.1167 23.1469 68.8308 21.9174C67.5448 20.6407 65.8778 20.0023 63.8298 20.0023C61.877 20.0023 60.2338 20.6643 58.9002 21.9884C57.6142 23.3124 56.8522 25.1566 56.614 27.5209Z" fill="white"/>
<path d="M107.506 51.2116C103.506 51.2116 100.005 50.3841 97.0044 48.7291C94.0038 47.074 91.67 44.757 90.003 41.7779C88.336 38.7988 87.5025 35.2996 87.5025 31.2802C87.5025 27.2609 88.336 23.7853 90.003 20.8535C91.67 17.8744 93.98 15.5574 96.9329 13.9023C99.9335 12.2 103.434 11.3488 107.435 11.3488C111.436 11.3488 114.889 12.2 117.794 13.9023C120.747 15.5574 123.01 17.9453 124.581 21.0663C126.153 24.1872 126.939 27.8992 126.939 32.2023V34.4721H100.219C100.362 37.1202 101.1 39.1062 102.434 40.4302C103.815 41.707 105.578 42.3453 107.721 42.3453C109.34 42.3453 110.698 42.038 111.793 41.4233C112.889 40.7612 113.674 39.6973 114.151 38.2314L126.439 38.9407C125.391 42.9128 123.176 45.9628 119.795 48.0907C116.413 50.1713 112.317 51.2116 107.506 51.2116ZM100.219 27.5209H114.508C114.413 25.0147 113.722 23.1469 112.436 21.9174C111.15 20.6407 109.483 20.0023 107.435 20.0023C105.482 20.0023 103.839 20.6643 102.505 21.9884C101.22 23.3124 100.457 25.1566 100.219 27.5209Z" fill="white"/>
<path d="M133.037 50.3605V12.2H144.039L144.539 23.9035L143.039 23.6198C143.372 20.5934 144.11 18.1818 145.253 16.3849C146.444 14.588 147.921 13.3112 149.683 12.5546C151.445 11.7508 153.398 11.3488 155.541 11.3488C158.256 11.3488 160.59 11.9399 162.543 13.1221C164.543 14.257 166.067 15.912 167.115 18.0872C168.163 20.2151 168.687 22.7922 168.687 25.8186V50.3605H156.399V30.0035C156.399 28.0647 156.256 26.4097 155.97 25.0384C155.684 23.6671 155.16 22.6267 154.398 21.9174C153.684 21.2081 152.636 20.8535 151.255 20.8535C149.254 20.8535 147.754 21.6574 146.754 23.2651C145.801 24.8256 145.325 27.0717 145.325 30.0035V50.3605H133.037Z" fill="white"/>
<path d="M178.767 50.3605V0H188.054V22.9814L207.916 0H218.918L199.914 22.1302L220.132 50.3605H209.487L193.77 28.443L188.054 34.8977V50.3605H178.767Z" fill="white"/>
<path d="M238.859 51.2116C235.048 51.2116 231.738 50.4078 228.928 48.8C226.118 47.145 223.951 44.8279 222.427 41.8488C220.903 38.8698 220.141 35.3942 220.141 31.4221C220.141 27.45 220.903 23.9981 222.427 21.0663C223.951 18.0872 226.094 15.7702 228.857 14.1151C231.667 12.4601 234.929 11.6326 238.644 11.6326C242.264 11.6326 245.431 12.4364 248.146 14.0442C250.909 15.6519 253.028 17.969 254.505 20.9953C255.981 24.0217 256.719 27.6628 256.719 31.9186V33.9756H229.643C229.833 37.2857 230.738 39.7919 232.357 41.4942C234.024 43.1492 236.215 43.9767 238.93 43.9767C240.978 43.9767 242.669 43.5275 244.003 42.6291C245.384 41.6833 246.336 40.3829 246.86 38.7279L256.219 39.2953C255.171 42.9837 253.1 45.8919 250.004 48.0198C246.956 50.1477 243.241 51.2116 238.859 51.2116ZM229.643 27.8756H247.289C247.098 24.8019 246.217 22.5322 244.646 21.0663C243.074 19.5531 241.073 18.7965 238.644 18.7965C236.215 18.7965 234.191 19.5767 232.572 21.1372C231 22.6977 230.024 24.9438 229.643 27.8756Z" fill="white"/>
<path d="M280.371 51.2116C276.561 51.2116 273.25 50.4078 270.44 48.8C267.63 47.145 265.463 44.8279 263.939 41.8488C262.415 38.8698 261.653 35.3942 261.653 31.4221C261.653 27.45 262.415 23.9981 263.939 21.0663C265.463 18.0872 267.606 15.7702 270.369 14.1151C273.179 12.4601 276.442 11.6326 280.157 11.6326C283.776 11.6326 286.944 12.4364 289.659 14.0442C292.421 15.6519 294.54 17.969 296.017 20.9953C297.493 24.0217 298.232 27.6628 298.232 31.9186V33.9756H271.155C271.345 37.2857 272.25 39.7919 273.87 41.4942C275.537 43.1492 277.728 43.9767 280.442 43.9767C282.49 43.9767 284.181 43.5275 285.515 42.6291C286.896 41.6833 287.849 40.3829 288.373 38.7279L297.732 39.2953C296.684 42.9837 294.612 45.8919 291.516 48.0198C288.468 50.1477 284.753 51.2116 280.371 51.2116ZM271.155 27.8756H288.801C288.611 24.8019 287.73 22.5322 286.158 21.0663C284.586 19.5531 282.586 18.7965 280.157 18.7965C277.728 18.7965 275.703 19.5767 274.084 21.1372C272.512 22.6977 271.536 24.9438 271.155 27.8756Z" fill="white"/>
<path d="M305.38 61V12.4837H314.167L314.382 20.5698L313.453 20.1442C314.405 17.3543 315.953 15.25 318.097 13.8314C320.288 12.3655 322.836 11.6326 325.741 11.6326C329.361 11.6326 332.361 12.531 334.743 14.3279C337.172 16.1248 338.982 18.5128 340.173 21.4919C341.363 24.4709 341.959 27.781 341.959 31.4221C341.959 35.0632 341.339 38.3733 340.101 41.3523C338.91 44.3314 337.1 46.7194 334.671 48.5163C332.29 50.3132 329.289 51.2116 325.67 51.2116C323.764 51.2116 321.978 50.8806 320.311 50.2186C318.692 49.5566 317.287 48.6109 316.096 47.3814C314.953 46.1519 314.143 44.7097 313.667 43.0547L314.525 42.3453V61H305.38ZM323.526 43.8349C326.289 43.8349 328.456 42.7473 330.028 40.5721C331.647 38.3496 332.457 35.2996 332.457 31.4221C332.457 27.5446 331.647 24.5182 330.028 22.343C328.456 20.1205 326.289 19.0093 323.526 19.0093C321.669 19.0093 320.073 19.4822 318.74 20.4279C317.406 21.3264 316.358 22.6977 315.596 24.5419C314.882 26.386 314.525 28.6795 314.525 31.4221C314.525 34.1647 314.882 36.4581 315.596 38.3023C316.311 40.1465 317.335 41.5415 318.668 42.4872C320.049 43.3857 321.669 43.8349 323.526 43.8349Z" fill="white"/>
<path d="M365.558 51.2116C361.748 51.2116 358.438 50.4078 355.628 48.8C352.818 47.145 350.65 44.8279 349.126 41.8488C347.602 38.8698 346.84 35.3942 346.84 31.4221C346.84 27.45 347.602 23.9981 349.126 21.0663C350.65 18.0872 352.794 15.7702 355.556 14.1151C358.366 12.4601 361.629 11.6326 365.344 11.6326C368.964 11.6326 372.131 12.4364 374.846 14.0442C377.608 15.6519 379.728 17.969 381.204 20.9953C382.681 24.0217 383.419 27.6628 383.419 31.9186V33.9756H356.342C356.533 37.2857 357.438 39.7919 359.057 41.4942C360.724 43.1492 362.915 43.9767 365.63 43.9767C367.678 43.9767 369.368 43.5275 370.702 42.6291C372.083 41.6833 373.036 40.3829 373.56 38.7279L382.919 39.2953C381.871 42.9837 379.799 45.8919 376.703 48.0198C373.655 50.1477 369.94 51.2116 365.558 51.2116ZM356.342 27.8756H373.988C373.798 24.8019 372.917 22.5322 371.345 21.0663C369.773 19.5531 367.773 18.7965 365.344 18.7965C362.915 18.7965 360.891 19.5767 359.271 21.1372C357.699 22.6977 356.723 24.9438 356.342 27.8756Z" fill="white"/>
<path d="M390.567 50.3605V12.4837H399.14L399.497 22.9814L398.712 22.8395C399.283 19.1984 400.355 16.574 401.927 14.9663C403.546 13.3112 405.737 12.4837 408.499 12.4837H412V20.286H408.428C406.475 20.286 404.856 20.5698 403.57 21.1372C402.284 21.7047 401.307 22.6031 400.641 23.8326C400.021 25.0147 399.712 26.5752 399.712 28.514V50.3605H390.567Z" fill="white"/>
</svg>
